<?xml version="1.0" encoding="UTF-8" ?>
<!DOCTYPE svg PUBLIC "-//W3C//DTD SVG 1.1//EN" "http://www.w3.org/Graphics/SVG/1.1/DTD/svg11.dtd">
<svg width="2049pt" height="2049pt" viewBox="0 0 2049 2049" version="1.1" xmlns="http://www.w3.org/2000/svg">
<path fill="#0c0c0c" opacity="0.91" d=" M 1024.02 0.00 L 1024.88 0.00 C 1034.57 8.18 1049.06 11.04 1054.14 23.89 C 1069.95 42.77 1076.23 70.55 1099.04 82.82 C 1133.55 67.68 1144.83 21.25 1184.13 13.22 C 1220.51 31.23 1216.56 80.15 1244.41 105.85 C 1282.26 98.85 1299.30 50.78 1340.55 51.02 C 1374.16 74.30 1360.95 123.45 1386.42 151.80 C 1424.09 148.63 1448.57 107.07 1488.66 112.06 C 1517.99 139.77 1498.19 186.38 1517.97 218.60 C 1555.92 222.87 1586.84 184.21 1625.80 196.07 C 1650.01 227.73 1623.31 272.11 1638.92 306.46 C 1675.62 314.75 1711.55 283.12 1747.95 300.04 C 1768.25 336.04 1732.98 373.66 1743.23 410.62 C 1777.68 425.86 1819.20 399.69 1852.15 422.30 C 1866.13 459.95 1827.82 492.81 1830.01 530.34 C 1862.06 551.35 1908.13 530.84 1937.14 560.07 C 1942.51 600.38 1901.13 625.11 1897.30 662.76 C 1925.75 688.17 1973.49 675.38 1998.28 707.68 C 1999.72 749.09 1950.71 766.74 1943.29 804.69 C 1968.97 832.50 2016.57 828.74 2035.91 864.25 C 2029.05 904.13 1982.08 915.70 1966.40 950.07 C 1977.65 971.97 2003.86 978.26 2022.02 992.98 C 2036.29 998.13 2040.92 1012.91 2049.00 1024.19 L 2049.00 1025.88 C 2040.81 1035.75 2036.94 1049.93 2024.07 1055.08 C 2005.77 1070.47 1978.01 1076.45 1967.09 1099.08 C 1980.77 1134.40 2030.42 1145.02 2035.73 1185.55 C 2018.48 1214.38 1983.08 1218.80 1955.49 1233.45 C 1947.33 1239.37 1939.14 1246.75 1947.05 1256.90 C 1962.28 1285.99 1997.66 1304.67 1998.70 1340.80 C 1977.31 1370.09 1935.50 1364.23 1906.02 1379.91 C 1890.51 1384.61 1899.78 1403.25 1905.62 1412.46 C 1918.93 1436.90 1941.08 1459.41 1936.82 1489.44 C 1908.21 1517.45 1862.96 1498.98 1830.36 1517.90 C 1826.65 1555.79 1864.27 1586.43 1853.95 1625.63 C 1821.94 1650.06 1778.13 1623.89 1743.21 1638.42 C 1733.06 1675.38 1767.61 1712.00 1748.66 1748.70 C 1712.67 1767.37 1674.54 1733.15 1637.88 1743.89 C 1624.60 1778.83 1648.79 1819.25 1627.23 1852.39 C 1601.09 1862.86 1575.83 1845.32 1551.34 1836.72 C 1538.67 1830.29 1515.67 1821.82 1511.86 1841.98 C 1504.80 1873.44 1512.92 1910.39 1490.04 1936.63 C 1456.18 1942.01 1431.33 1914.17 1403.27 1900.47 C 1396.21 1900.21 1385.03 1892.77 1381.89 1903.02 C 1363.08 1932.50 1371.41 1976.23 1340.86 1998.73 C 1304.97 1997.88 1286.21 1962.80 1257.54 1947.33 C 1242.32 1936.23 1231.41 1956.56 1227.18 1969.16 C 1216.36 1993.15 1210.18 2021.90 1185.43 2035.59 C 1145.01 2031.02 1134.09 1979.57 1098.28 1967.18 C 1066.88 1987.42 1062.37 2033.88 1025.80 2049.00 L 1023.27 2049.00 C 986.66 2033.66 982.06 1987.43 950.78 1966.39 C 915.63 1980.84 904.74 2028.45 865.02 2035.92 C 828.02 2018.05 833.23 1967.79 803.68 1943.23 C 766.67 1952.11 747.30 2001.13 706.81 1997.32 C 674.81 1972.98 688.32 1925.26 662.67 1897.28 C 625.25 1901.13 600.78 1942.01 560.86 1937.63 C 531.23 1909.74 551.21 1862.87 531.02 1830.44 C 493.45 1826.48 463.02 1864.44 424.47 1854.13 C 398.31 1822.86 424.89 1778.93 411.41 1743.56 C 374.33 1733.67 335.82 1767.75 299.94 1747.98 C 283.35 1711.51 314.55 1675.49 306.48 1638.73 C 271.66 1623.00 229.07 1650.05 196.31 1626.55 C 187.65 1598.49 204.87 1573.50 214.01 1548.11 C 219.47 1536.86 225.85 1516.57 209.07 1512.85 C 180.49 1503.54 145.57 1514.22 120.15 1494.99 C 116.30 1492.34 109.58 1490.35 112.08 1484.03 C 109.64 1446.15 149.05 1422.78 151.87 1386.40 C 122.95 1361.67 75.63 1373.49 50.79 1341.40 C 50.59 1300.77 97.09 1282.37 105.60 1245.37 C 81.48 1215.81 32.43 1221.50 13.43 1185.53 C 19.41 1145.29 67.90 1134.02 82.87 1099.02 C 67.21 1073.71 35.24 1066.43 13.97 1046.99 C 8.93 1039.87 5.29 1031.86 0.00 1024.92 L 0.00 1024.06 C 8.45 1014.00 11.70 999.20 25.25 994.24 C 43.66 978.92 70.53 972.87 82.66 950.87 C 68.72 915.29 18.44 904.35 13.58 863.61 C 33.18 828.35 81.81 832.88 106.02 803.71 C 96.60 766.82 50.16 748.32 50.84 707.58 C 76.03 676.23 122.30 687.32 151.82 663.49 C 149.26 625.03 104.78 599.71 112.80 559.21 C 142.02 531.52 186.58 550.20 219.05 531.11 C 222.11 493.05 184.23 462.26 196.06 423.25 C 228.25 399.25 271.21 425.37 306.27 411.07 C 315.69 373.92 281.24 335.95 301.04 300.00 C 337.75 282.61 373.99 316.05 410.78 306.01 C 425.36 271.21 399.16 228.28 423.24 196.12 C 462.14 184.43 493.16 222.15 531.13 219.05 C 551.01 186.50 531.23 140.23 560.32 112.04 C 600.76 106.75 625.20 149.11 663.32 151.82 C 687.93 122.63 675.51 73.74 708.87 50.44 C 749.61 51.65 767.33 97.96 804.53 105.70 C 832.62 80.54 828.86 31.46 864.95 13.34 C 904.76 20.48 915.50 68.72 950.72 82.64 C 983.06 62.58 986.38 14.56 1024.02 0.00 M 1024.20 12.29 C 989.19 29.01 986.86 78.39 951.13 94.54 C 913.48 83.74 903.67 34.97 866.23 25.03 C 833.38 46.29 839.82 96.96 806.17 117.57 C 767.46 112.04 749.94 66.18 711.44 62.16 C 683.06 88.74 696.82 137.47 666.84 162.95 C 627.82 163.26 603.84 121.88 565.22 122.15 C 540.58 153.05 561.86 200.14 535.96 229.98 C 497.74 235.49 467.59 198.85 429.86 205.51 C 408.74 238.99 440.65 284.14 416.96 316.11 C 380.29 326.91 344.80 296.48 308.61 308.59 C 295.31 345.02 328.28 381.13 315.40 418.15 C 281.69 439.51 238.16 408.59 204.97 430.52 C 198.85 468.74 238.16 499.69 228.19 537.88 C 197.13 561.75 152.61 541.15 122.16 565.18 C 121.66 604.03 163.39 627.83 162.93 666.89 C 144.76 688.73 114.03 687.07 89.00 696.02 C 75.29 697.89 54.53 709.40 64.89 725.88 C 78.83 754.90 113.13 773.74 117.32 807.27 C 96.37 836.66 54.61 834.89 30.23 859.25 C 20.25 865.35 28.52 875.15 31.40 882.57 C 51.21 906.56 83.71 919.60 94.35 950.53 C 79.54 987.31 27.99 988.88 12.15 1024.97 C 28.96 1059.96 79.28 1062.59 94.55 1098.60 C 83.13 1135.67 34.76 1145.64 25.08 1182.82 C 45.95 1215.51 96.40 1209.85 117.59 1242.84 C 112.56 1281.73 66.07 1298.99 62.23 1337.55 C 88.19 1365.77 135.00 1353.18 162.30 1380.76 C 165.43 1420.17 121.57 1444.78 122.10 1483.77 C 152.27 1509.66 199.75 1486.57 229.11 1513.28 C 236.16 1551.59 198.73 1581.58 205.11 1619.35 C 238.86 1639.68 281.96 1610.20 315.68 1631.45 C 327.75 1668.21 296.01 1704.11 308.61 1740.33 C 345.12 1754.70 382.94 1718.81 419.06 1735.01 C 438.10 1769.09 409.81 1810.05 429.43 1843.75 C 468.12 1851.38 499.35 1811.04 537.88 1820.79 C 560.89 1852.12 541.77 1895.81 564.68 1926.55 C 603.99 1928.55 628.99 1884.13 668.33 1886.76 C 695.83 1914.34 683.82 1960.65 711.31 1987.69 C 750.25 1982.97 767.69 1937.01 806.75 1931.95 C 839.49 1953.95 833.99 2002.78 866.18 2024.69 C 903.88 2014.88 912.96 1965.47 951.01 1955.01 C 987.22 1970.54 989.14 2021.43 1024.90 2036.88 C 1060.39 2021.11 1061.91 1970.66 1097.97 1955.01 C 1135.55 1965.89 1145.77 2013.47 1182.98 2024.79 C 1214.92 2002.91 1209.86 1954.04 1242.33 1932.06 C 1281.77 1936.25 1298.95 1982.76 1337.74 1987.80 C 1365.68 1960.61 1352.49 1911.56 1382.89 1886.33 C 1421.79 1886.06 1445.67 1928.15 1484.38 1926.79 C 1508.48 1895.91 1487.27 1849.23 1513.39 1819.84 C 1551.44 1813.44 1581.52 1850.71 1619.34 1843.78 C 1639.93 1810.42 1610.30 1768.02 1631.10 1734.05 C 1667.64 1720.52 1704.21 1753.77 1740.65 1740.67 C 1753.47 1704.28 1721.05 1668.68 1733.78 1631.99 C 1766.66 1609.72 1810.19 1639.96 1843.73 1619.55 C 1850.75 1581.40 1812.72 1551.13 1819.81 1512.64 C 1850.66 1487.54 1895.53 1507.77 1926.77 1484.53 C 1928.33 1445.17 1883.75 1420.31 1886.79 1380.83 C 1914.42 1353.31 1960.75 1365.68 1987.73 1337.88 C 1983.07 1298.99 1936.29 1281.64 1932.04 1242.22 C 1954.28 1210.13 2002.73 1214.80 2024.79 1183.00 C 2013.80 1145.75 1965.56 1135.74 1955.04 1098.03 C 1970.58 1061.90 2021.06 1060.34 2036.88 1024.93 C 2025.04 996.05 1989.62 989.56 1968.07 969.90 C 1964.62 961.80 1949.74 954.40 1957.86 944.90 C 1970.29 910.98 2016.00 902.04 2024.66 866.20 C 2002.98 833.69 1953.36 840.12 1932.05 806.67 C 1935.90 769.32 1978.38 752.46 1986.43 717.33 C 1989.60 708.36 1978.27 705.57 1973.92 699.99 C 1944.91 688.94 1910.57 690.32 1886.74 668.24 C 1884.31 629.20 1927.87 604.40 1926.82 565.48 C 1896.69 540.23 1849.77 562.23 1820.00 536.70 C 1812.94 498.23 1850.73 467.76 1843.84 429.62 C 1816.60 413.45 1783.77 430.09 1754.56 425.44 C 1746.81 421.20 1730.67 423.35 1732.39 410.59 C 1723.68 376.16 1753.85 342.61 1740.43 308.55 C 1703.88 295.58 1666.81 329.09 1630.27 314.79 C 1611.78 280.34 1638.98 239.04 1619.55 205.15 C 1581.49 199.19 1551.41 235.52 1513.10 229.93 C 1487.18 200.25 1508.75 152.69 1483.89 122.26 C 1445.03 122.35 1420.80 164.07 1381.40 162.84 C 1358.08 138.99 1361.00 103.46 1348.59 74.43 C 1343.23 68.36 1337.76 57.54 1328.01 63.88 C 1295.41 74.47 1277.42 113.79 1241.71 117.32 C 1209.40 95.17 1215.72 45.87 1182.85 25.06 C 1145.11 34.81 1135.57 85.11 1097.37 94.57 C 1062.07 77.40 1059.78 28.32 1024.20 12.29 Z" />
<path fill="#808080" opacity="1.00" d=" M 1024.20 12.29 C 1059.78 28.32 1062.07 77.40 1097.37 94.57 C 1135.57 85.11 1145.11 34.81 1182.85 25.06 C 1215.72 45.87 1209.40 95.17 1241.71 117.32 C 1277.42 113.79 1295.41 74.47 1328.01 63.88 C 1337.76 57.54 1343.23 68.36 1348.59 74.43 C 1361.00 103.46 1358.08 138.99 1381.40 162.84 C 1420.80 164.07 1445.03 122.35 1483.89 122.26 C 1508.75 152.69 1487.18 200.25 1513.10 229.93 C 1551.41 235.52 1581.49 199.19 1619.55 205.15 C 1638.98 239.04 1611.78 280.34 1630.27 314.79 C 1666.81 329.09 1703.88 295.58 1740.43 308.55 C 1753.85 342.61 1723.68 376.16 1732.39 410.59 C 1730.67 423.35 1746.81 421.20 1754.56 425.44 C 1783.77 430.09 1816.60 413.45 1843.84 429.62 C 1850.73 467.76 1812.94 498.23 1820.00 536.70 C 1849.77 562.23 1896.69 540.23 1926.82 565.48 C 1927.87 604.40 1884.31 629.20 1886.74 668.24 C 1910.57 690.32 1944.91 688.94 1973.92 699.99 C 1978.27 705.57 1989.60 708.36 1986.43 717.33 C 1978.38 752.46 1935.90 769.32 1932.05 806.67 C 1953.36 840.12 2002.98 833.69 2024.66 866.20 C 2016.00 902.04 1970.29 910.98 1957.86 944.90 C 1949.74 954.40 1964.62 961.80 1968.07 969.90 C 1989.62 989.56 2025.04 996.05 2036.88 1024.93 C 2021.06 1060.34 1970.58 1061.90 1955.04 1098.03 C 1965.56 1135.74 2013.80 1145.75 2024.79 1183.00 C 2002.73 1214.80 1954.28 1210.13 1932.04 1242.22 C 1936.29 1281.64 1983.07 1298.99 1987.73 1337.88 C 1960.75 1365.68 1914.42 1353.31 1886.79 1380.83 C 1883.75 1420.31 1928.33 1445.17 1926.77 1484.53 C 1895.53 1507.77 1850.66 1487.54 1819.81 1512.64 C 1812.72 1551.13 1850.75 1581.40 1843.73 1619.55 C 1810.19 1639.96 1766.66 1609.72 1733.78 1631.99 C 1721.05 1668.68 1753.47 1704.28 1740.65 1740.67 C 1704.21 1753.77 1667.64 1720.52 1631.10 1734.05 C 1610.30 1768.02 1639.93 1810.42 1619.34 1843.78 C 1581.52 1850.71 1551.44 1813.44 1513.39 1819.84 C 1487.27 1849.23 1508.48 1895.91 1484.38 1926.79 C 1445.67 1928.15 1421.79 1886.06 1382.89 1886.33 C 1352.49 1911.56 1365.68 1960.61 1337.74 1987.80 C 1298.95 1982.76 1281.77 1936.25 1242.33 1932.06 C 1209.86 1954.04 1214.92 2002.91 1182.98 2024.79 C 1145.77 2013.47 1135.55 1965.89 1097.97 1955.01 C 1061.91 1970.66 1060.39 2021.11 1024.90 2036.88 C 989.14 2021.43 987.22 1970.54 951.01 1955.01 C 912.96 1965.47 903.88 2014.88 866.18 2024.69 C 833.99 2002.78 839.49 1953.95 806.75 1931.95 C 767.69 1937.01 750.25 1982.97 711.31 1987.69 C 683.82 1960.65 695.83 1914.34 668.33 1886.76 C 628.99 1884.13 603.99 1928.55 564.68 1926.55 C 541.77 1895.81 560.89 1852.12 537.88 1820.79 C 499.35 1811.04 468.12 1851.38 429.43 1843.75 C 409.81 1810.05 438.10 1769.09 419.06 1735.01 C 382.94 1718.81 345.12 1754.70 308.61 1740.33 C 296.01 1704.11 327.75 1668.21 315.68 1631.45 C 281.96 1610.20 238.86 1639.68 205.11 1619.35 C 198.73 1581.58 236.16 1551.59 229.11 1513.28 C 199.75 1486.57 152.27 1509.66 122.10 1483.77 C 121.57 1444.78 165.43 1420.17 162.30 1380.76 C 135.00 1353.18 88.19 1365.77 62.23 1337.55 C 66.07 1298.99 112.56 1281.73 117.59 1242.84 C 96.40 1209.85 45.95 1215.51 25.08 1182.82 C 34.76 1145.64 83.13 1135.67 94.55 1098.60 C 79.28 1062.59 28.96 1059.96 12.15 1024.97 C 27.99 988.88 79.54 987.31 94.35 950.53 C 83.71 919.60 51.21 906.56 31.40 882.57 C 28.52 875.15 20.25 865.35 30.23 859.25 C 54.61 834.89 96.37 836.66 117.32 807.27 C 113.13 773.74 78.83 754.90 64.89 725.88 C 54.53 709.40 75.29 697.89 89.00 696.02 C 114.03 687.07 144.76 688.73 162.93 666.89 C 163.39 627.83 121.66 604.03 122.16 565.18 C 152.61 541.15 197.13 561.75 228.19 537.88 C 238.16 499.69 198.85 468.74 204.97 430.52 C 238.16 408.59 281.69 439.51 315.40 418.15 C 328.28 381.13 295.31 345.02 308.61 308.59 C 344.80 296.48 380.29 326.91 416.96 316.11 C 440.65 284.14 408.74 238.99 429.86 205.51 C 467.59 198.85 497.74 235.49 535.96 229.98 C 561.86 200.14 540.58 153.05 565.22 122.15 C 603.84 121.88 627.82 163.26 666.84 162.95 C 696.82 137.47 683.06 88.74 711.44 62.16 C 749.94 66.18 767.46 112.04 806.17 117.57 C 839.82 96.96 833.38 46.29 866.23 25.03 C 903.67 34.97 913.48 83.74 951.13 94.54 C 986.86 78.39 989.19 29.01 1024.20 12.29 M 988.58 183.60 C 898.78 187.44 809.53 205.48 725.55 237.54 C 510.39 318.49 332.46 491.95 245.86 704.85 C 162.41 905.61 161.99 1138.79 243.92 1340.11 C 325.03 1541.89 487.53 1709.35 687.12 1795.87 C 866.83 1875.78 1074.64 1887.64 1262.98 1831.99 C 1414.24 1787.78 1552.23 1699.47 1655.97 1580.96 C 1781.22 1440.44 1856.29 1256.35 1865.26 1068.35 C 1877.89 839.69 1792.51 606.86 1632.24 442.76 C 1468.53 268.80 1227.14 171.90 988.58 183.60 Z" />
<path fill="#0c0c0c" opacity="0.91" d=" M 988.58 183.60 C 1227.14 171.90 1468.53 268.80 1632.24 442.76 C 1792.51 606.86 1877.89 839.69 1865.26 1068.35 C 1856.29 1256.35 1781.22 1440.44 1655.97 1580.96 C 1552.23 1699.47 1414.24 1787.78 1262.98 1831.99 C 1074.64 1887.64 866.83 1875.78 687.12 1795.87 C 487.53 1709.35 325.03 1541.89 243.92 1340.11 C 161.99 1138.79 162.41 905.61 245.86 704.85 C 332.46 491.95 510.39 318.49 725.55 237.54 C 809.53 205.48 898.78 187.44 988.58 183.60 M 1018.49 193.39 C 983.59 196.08 948.61 197.65 913.74 200.62 C 878.19 207.72 842.56 214.52 807.12 222.11 C 773.39 233.75 739.35 244.58 705.84 256.83 C 675.08 271.60 644.42 286.57 614.00 302.03 C 712.06 446.82 811.11 591.09 909.24 735.85 C 970.10 711.39 1037.83 708.62 1101.50 722.80 C 1179.64 567.85 1257.84 412.91 1336.04 257.99 C 1336.80 256.60 1337.79 253.92 1335.39 253.67 C 1303.35 243.11 1271.61 231.62 1239.45 221.45 C 1204.18 214.35 1168.91 207.12 1133.58 200.35 C 1095.24 198.03 1056.85 194.08 1018.49 193.39 M 1347.14 257.98 C 1268.58 414.05 1189.72 569.98 1111.09 726.01 C 1146.06 736.56 1179.11 752.99 1208.84 774.01 C 1284.72 617.63 1359.72 460.79 1435.35 304.28 C 1435.78 303.25 1436.52 301.60 1435.03 301.05 C 1406.48 285.24 1377.28 270.53 1347.14 257.98 M 603.49 307.50 C 575.21 323.84 547.95 342.08 522.16 362.11 C 617.11 507.10 712.06 652.10 807.07 797.05 C 806.82 800.76 810.43 800.47 811.71 798.78 C 837.34 774.18 867.50 754.44 899.94 740.06 C 801.63 595.66 703.32 451.23 604.84 306.94 C 604.50 307.08 603.82 307.36 603.49 307.50 M 1444.61 308.51 C 1368.67 465.89 1292.63 623.27 1217.18 780.88 C 1267.77 821.16 1306.21 877.30 1323.33 939.85 C 1498.13 931.04 1672.98 919.59 1847.83 911.08 C 1841.70 875.97 1834.44 840.97 1826.96 806.10 C 1814.59 771.56 1803.96 736.40 1790.87 702.13 C 1774.93 670.62 1760.33 638.43 1743.75 607.25 C 1716.10 567.44 1692.63 524.32 1658.83 489.17 C 1599.30 416.69 1524.35 355.19 1444.61 308.51 M 513.80 369.28 C 413.90 448.91 329.96 549.76 276.00 666.00 C 251.33 711.15 238.33 761.13 221.40 809.42 C 213.89 844.62 207.44 880.06 200.32 915.34 C 197.30 949.85 195.88 984.50 193.14 1019.04 C 367.62 1005.88 542.17 993.02 716.65 979.84 C 726.88 915.73 756.59 854.35 801.82 807.99 C 706.17 661.85 610.69 513.93 513.80 369.28 M 1021.47 724.52 C 940.42 725.91 858.68 759.32 804.67 820.67 C 744.30 885.03 714.25 977.51 727.02 1065.00 C 742.11 1184.52 836.34 1290.81 954.59 1316.41 C 1025.84 1334.12 1103.19 1323.08 1167.95 1288.97 C 1291.04 1224.02 1356.49 1066.70 1310.61 934.37 C 1274.01 810.99 1150.42 720.51 1021.47 724.52 M 1838.60 921.58 C 1667.87 930.73 1497.19 941.90 1326.43 949.69 C 1334.88 985.48 1337.27 1022.61 1333.21 1059.19 C 1507.38 1045.40 1681.69 1033.07 1855.90 1019.76 C 1856.28 986.80 1853.27 953.91 1849.79 921.16 C 1846.01 920.81 1842.29 920.95 1838.60 921.58 M 714.40 990.40 C 540.69 1003.68 366.91 1016.83 193.13 1029.23 C 192.20 1062.46 196.55 1095.55 198.68 1128.62 C 373.33 1118.49 548.04 1108.63 722.73 1099.07 C 714.47 1063.48 711.44 1026.47 716.15 990.11 C 715.72 990.18 714.84 990.33 714.40 990.40 M 1851.57 1030.59 C 1680.08 1043.44 1508.61 1056.53 1337.09 1068.95 C 1331.41 1066.03 1332.07 1071.49 1331.21 1074.32 C 1321.28 1136.80 1291.69 1196.12 1247.21 1241.13 C 1342.30 1387.38 1438.52 1533.14 1533.81 1679.32 C 1536.02 1681.30 1538.25 1678.04 1539.89 1676.94 C 1563.65 1655.31 1588.39 1634.77 1612.08 1613.08 C 1635.91 1586.54 1659.31 1559.62 1682.76 1532.74 C 1703.52 1502.44 1724.18 1472.03 1744.29 1441.28 C 1761.32 1407.47 1778.42 1373.66 1794.30 1339.30 C 1805.38 1305.81 1817.27 1272.60 1828.04 1239.01 C 1835.04 1204.30 1842.09 1169.58 1848.84 1134.81 C 1851.95 1100.00 1853.28 1065.05 1856.15 1030.22 L 1851.57 1030.59 M 718.57 1109.55 C 546.08 1119.65 373.47 1128.69 201.03 1139.04 C 207.82 1172.00 214.19 1205.05 220.96 1238.01 C 231.67 1271.62 243.57 1304.83 254.70 1338.30 C 293.42 1427.19 343.24 1512.09 410.22 1582.79 C 440.49 1620.53 479.75 1649.28 515.23 1681.77 C 543.34 1702.30 573.12 1720.54 601.85 1740.22 C 604.78 1742.79 606.05 1738.03 607.09 1736.08 C 681.78 1580.06 757.97 1424.53 831.82 1268.25 C 780.94 1228.09 743.08 1171.61 725.69 1109.15 C 723.30 1108.92 720.92 1109.05 718.57 1109.55 M 1239.38 1249.39 C 1212.50 1273.56 1182.79 1295.22 1149.21 1309.07 C 1247.35 1453.53 1345.76 1597.80 1444.19 1742.07 C 1471.31 1727.94 1496.10 1709.65 1521.07 1692.07 C 1522.79 1689.83 1530.45 1687.81 1524.98 1683.98 C 1429.67 1539.48 1335.08 1392.14 1239.38 1249.39 M 840.16 1275.29 C 764.56 1432.57 688.71 1589.74 613.04 1746.98 C 640.97 1764.26 671.28 1778.61 701.77 1790.89 C 781.30 1635.73 858.99 1479.47 937.83 1323.96 C 904.10 1312.32 869.81 1296.36 840.16 1275.29 M 1139.19 1313.38 C 1078.96 1337.82 1011.20 1341.46 948.23 1325.98 C 869.88 1480.49 792.05 1635.29 713.96 1789.95 C 713.72 1791.48 710.37 1794.92 713.40 1795.57 C 745.66 1806.16 777.62 1817.72 809.99 1828.04 C 842.69 1834.75 875.48 1841.09 908.20 1847.79 C 985.97 1857.27 1064.61 1857.25 1142.36 1847.38 C 1174.59 1841.01 1206.82 1834.58 1239.01 1828.04 C 1273.30 1816.98 1307.35 1805.15 1341.40 1793.40 C 1372.60 1778.37 1404.97 1763.39 1434.81 1747.01 C 1336.92 1602.52 1237.84 1456.58 1139.19 1313.38 Z" />
<path fill="#808080" opacity="1.00" d=" M 1347.14 257.98 C 1377.28 270.53 1406.48 285.24 1435.03 301.05 C 1436.52 301.60 1435.78 303.25 1435.35 304.28 C 1359.72 460.79 1284.72 617.63 1208.84 774.01 C 1179.11 752.99 1146.06 736.56 1111.09 726.01 C 1189.72 569.98 1268.58 414.05 1347.14 257.98 Z" />
<path fill="#808080" opacity="1.00" d=" M 603.49 307.50 C 603.82 307.36 604.50 307.08 604.84 306.94 C 703.32 451.23 801.63 595.66 899.94 740.06 C 867.50 754.44 837.34 774.18 811.71 798.78 C 810.43 800.47 806.82 800.76 807.07 797.05 C 712.06 652.10 617.11 507.10 522.16 362.11 C 547.95 342.08 575.21 323.84 603.49 307.50 Z" />
<path fill="#808080" opacity="1.00" d=" M 1021.47 724.52 C 1150.42 720.51 1274.01 810.99 1310.61 934.37 C 1356.49 1066.70 1291.04 1224.02 1167.95 1288.97 C 1103.19 1323.08 1025.84 1334.12 954.59 1316.41 C 836.34 1290.81 742.11 1184.52 727.02 1065.00 C 714.25 977.51 744.30 885.03 804.67 820.67 C 858.68 759.32 940.42 725.91 1021.47 724.52 M 1009.48 816.41 C 924.18 821.47 846.61 884.68 823.94 966.96 C 805.63 1029.77 819.09 1100.95 859.59 1152.41 C 900.26 1205.62 967.81 1237.38 1034.89 1233.02 C 1130.31 1230.47 1215.95 1153.53 1230.55 1059.55 C 1242.04 992.30 1218.67 920.03 1168.40 873.60 C 1126.81 833.05 1067.31 812.05 1009.48 816.41 Z" />
<path fill="#0c0c0c" opacity="0.91" d=" M 1009.48 816.41 C 1067.31 812.05 1126.81 833.05 1168.40 873.60 C 1218.67 920.03 1242.04 992.30 1230.55 1059.55 C 1215.95 1153.53 1130.31 1230.47 1034.89 1233.02 C 967.81 1237.38 900.26 1205.62 859.59 1152.41 C 819.09 1100.95 805.63 1029.77 823.94 966.96 C 846.61 884.68 924.18 821.47 1009.48 816.41 M 1012.56 826.55 C 956.44 829.30 902.64 857.95 868.24 902.24 C 807.78 976.10 813.24 1093.68 880.73 1161.28 C 923.78 1207.87 990.37 1231.06 1053.08 1221.07 C 1134.33 1210.93 1203.83 1144.53 1219.37 1064.38 C 1227.84 1021.69 1222.15 976.11 1203.02 936.97 C 1168.87 866.81 1090.81 820.13 1012.56 826.55 Z" />
<path fill="#808080" opacity="1.00" d=" M 1838.60 921.58 C 1842.29 920.95 1846.01 920.81 1849.79 921.16 C 1853.27 953.91 1856.28 986.80 1855.90 1019.76 C 1681.69 1033.07 1507.38 1045.40 1333.21 1059.19 C 1337.27 1022.61 1334.88 985.48 1326.43 949.69 C 1497.19 941.90 1667.87 930.73 1838.60 921.58 Z" />
<path fill="#808080" opacity="1.00" d=" M 714.40 990.40 C 714.84 990.33 715.72 990.18 716.15 990.11 C 711.44 1026.47 714.47 1063.48 722.73 1099.07 C 548.04 1108.63 373.33 1118.49 198.68 1128.62 C 196.55 1095.55 192.20 1062.46 193.13 1029.23 C 366.91 1016.83 540.69 1003.68 714.40 990.40 Z" />
<path fill="#808080" opacity="1.00" d=" M 1239.38 1249.39 C 1335.08 1392.14 1429.67 1539.48 1524.98 1683.98 C 1530.45 1687.81 1522.79 1689.83 1521.07 1692.07 C 1496.10 1709.65 1471.31 1727.94 1444.19 1742.07 C 1345.76 1597.80 1247.35 1453.53 1149.21 1309.07 C 1182.79 1295.22 1212.50 1273.56 1239.38 1249.39 Z" />
<path fill="#808080" opacity="1.00" d=" M 840.16 1275.29 C 869.81 1296.36 904.10 1312.32 937.83 1323.96 C 858.99 1479.47 781.30 1635.73 701.77 1790.89 C 671.28 1778.61 640.97 1764.26 613.04 1746.98 C 688.71 1589.74 764.56 1432.57 840.16 1275.29 Z" />
</svg>
